<svg id="visual" viewBox="0 0 900 600" width="900" height="600" xmlns="http://www.w3.org/2000/svg" xmlns:xlink="http://www.w3.org/1999/xlink" version="1.1"><rect x="0" y="0" width="900" height="600" fill="#001220"></rect><path d="M0 405L16.7 420.5C33.3 436 66.7 467 100 466.8C133.3 466.7 166.7 435.3 200 430.3C233.3 425.3 266.7 446.7 300 446.7C333.3 446.7 366.7 425.3 400 427.5C433.3 429.7 466.7 455.3 500 459.5C533.3 463.7 566.7 446.3 600 442.7C633.3 439 666.7 449 700 458.7C733.3 468.3 766.7 477.7 800 468.7C833.3 459.7 866.7 432.3 883.3 418.7L900 405L900 601L883.3 601C866.7 601 833.3 601 800 601C766.7 601 733.3 601 700 601C666.7 601 633.3 601 600 601C566.7 601 533.3 601 500 601C466.7 601 433.3 601 400 601C366.7 601 333.3 601 300 601C266.7 601 233.3 601 200 601C166.7 601 133.3 601 100 601C66.7 601 33.3 601 16.7 601L0 601Z" fill="#fa3c2f"></path><path d="M0 472L16.7 473.2C33.3 474.3 66.7 476.7 100 479.3C133.3 482 166.7 485 200 482.8C233.3 480.7 266.7 473.3 300 466.8C333.3 460.3 366.7 454.7 400 453.3C433.3 452 466.7 455 500 462C533.3 469 566.7 480 600 484.8C633.3 489.7 666.7 488.3 700 488.7C733.3 489 766.7 491 800 485C833.3 479 866.7 465 883.3 458L900 451L900 601L883.3 601C866.7 601 833.3 601 800 601C766.7 601 733.3 601 700 601C666.7 601 633.3 601 600 601C566.7 601 533.3 601 500 601C466.7 601 433.3 601 400 601C366.7 601 333.3 601 300 601C266.7 601 233.3 601 200 601C166.7 601 133.3 601 100 601C66.7 601 33.3 601 16.7 601L0 601Z" fill="#e7362e"></path><path d="M0 497L16.7 492.8C33.3 488.7 66.7 480.3 100 475.5C133.3 470.7 166.7 469.3 200 471.2C233.3 473 266.7 478 300 484C333.3 490 366.7 497 400 496C433.3 495 466.7 486 500 485.3C533.3 484.7 566.7 492.3 600 490.7C633.3 489 666.7 478 700 475.7C733.3 473.3 766.7 479.7 800 479.8C833.3 480 866.7 474 883.3 471L900 468L900 601L883.3 601C866.7 601 833.3 601 800 601C766.7 601 733.3 601 700 601C666.7 601 633.3 601 600 601C566.7 601 533.3 601 500 601C466.7 601 433.3 601 400 601C366.7 601 333.3 601 300 601C266.7 601 233.3 601 200 601C166.7 601 133.3 601 100 601C66.7 601 33.3 601 16.7 601L0 601Z" fill="#d4312c"></path><path d="M0 534L16.7 534.7C33.3 535.3 66.7 536.7 100 538C133.3 539.3 166.7 540.7 200 539.5C233.3 538.3 266.7 534.7 300 536.5C333.3 538.3 366.7 545.7 400 541.8C433.3 538 466.7 523 500 515.3C533.3 507.7 566.7 507.3 600 510.3C633.3 513.3 666.7 519.7 700 519.5C733.3 519.3 766.7 512.7 800 514.3C833.3 516 866.7 526 883.3 531L900 536L900 601L883.3 601C866.7 601 833.3 601 800 601C766.7 601 733.3 601 700 601C666.7 601 633.3 601 600 601C566.7 601 533.3 601 500 601C466.7 601 433.3 601 400 601C366.7 601 333.3 601 300 601C266.7 601 233.3 601 200 601C166.7 601 133.3 601 100 601C66.7 601 33.3 601 16.7 601L0 601Z" fill="#c12c2a"></path><path d="M0 577L16.7 577.5C33.3 578 66.7 579 100 579C133.3 579 166.7 578 200 577.3C233.3 576.7 266.7 576.3 300 573.2C333.3 570 366.7 564 400 560C433.3 556 466.7 554 500 554.8C533.3 555.7 566.7 559.3 600 556.8C633.3 554.3 666.7 545.7 700 544.5C733.3 543.3 766.7 549.7 800 553C833.3 556.3 866.7 556.7 883.3 556.8L900 557L900 601L883.3 601C866.7 601 833.3 601 800 601C766.7 601 733.3 601 700 601C666.7 601 633.3 601 600 601C566.7 601 533.3 601 500 601C466.7 601 433.3 601 400 601C366.7 601 333.3 601 300 601C266.7 601 233.3 601 200 601C166.7 601 133.3 601 100 601C66.7 601 33.3 601 16.7 601L0 601Z" fill="#ae2727"></path></svg>